<svg xmlns="http://www.w3.org/2000/svg" width="1024" height="1024" viewBox="0 0 1024 1024">
  <rect width="1024" height="1024" rx="220" fill="#FFFFFF"/>
  <g transform="translate(168 168) scale(4.195)">
<g id="Symbol / Purple / 164 &#226;&#128;&#148; Official + Inner Shadow Stronger">
<g id="Vector" filter="url(#filter0_ii_0_4)">
<path d="M8.96875 81.6156C8.96875 79.139 6.96103 77.1312 4.48438 77.1312C2.00772 77.1312 0 79.139 0 81.6156V103.397C0 105.874 2.00772 107.881 4.48438 107.881C6.96103 107.881 8.96875 105.874 8.96875 103.397V81.6156Z" fill="#5B4DFF"/>
</g>
<g id="Vector_2" filter="url(#filter1_ii_0_4)">
<path d="M24.3438 70.0844C24.3438 67.6077 22.336 65.6 19.8594 65.6C17.3827 65.6 15.375 67.6077 15.375 70.0844V114.928C15.375 117.405 17.3827 119.412 19.8594 119.412C22.336 119.412 24.3438 117.405 24.3438 114.928V70.0844Z" fill="#5B4DFF"/>
</g>
<g id="Vector_3" filter="url(#filter2_ii_0_4)">
<path d="M39.7188 79.0531C39.7188 76.5765 37.711 74.5687 35.2344 74.5687C32.7577 74.5687 30.75 76.5765 30.75 79.0531V105.959C30.75 108.436 32.7577 110.444 35.2344 110.444C37.711 110.444 39.7188 108.436 39.7188 105.959V79.0531Z" fill="#5B4DFF"/>
</g>
<g id="Union" filter="url(#filter3_ii_0_4)">
<path d="M66.3456 5.21818C73.3398 5.21823 79.0183 9.70698 79.0184 14.3246V52.7328C87.5226 47.1924 97.6259 43.9819 108.464 43.9819C138.724 43.9819 163.255 69.0133 163.255 99.891C163.255 130.769 138.724 155.8 108.464 155.8C83.5227 155.8 62.4739 138.795 55.8446 115.528C55.3169 114.008 54.9183 112.199 54.6141 110.26C53.9966 106.9 53.6727 103.434 53.6727 99.891C53.6727 99.2771 53.6828 98.6653 53.702 98.0561C53.645 94.9764 53.6893 92.4499 53.6893 91.2475V14.3246C53.6895 9.70695 59.3513 5.21818 66.3456 5.21818Z" fill="#5B4DFF"/>
</g>
<path id="Vector_4" d="M93.1818 87.1464C93.1818 82.5339 98.2428 79.7151 102.215 82.1495L123.483 95.1542C127.263 97.4605 127.263 102.97 123.483 105.276L102.215 118.281C98.2428 120.715 93.1818 117.896 93.1818 113.284V87.1464Z" fill="#FFFFFF"/>
</g>
<defs>
<filter id="filter0_ii_0_4" x="0" y="75.4912" width="8.96875" height="35.3718" filterUnits="userSpaceOnUse" color-interpolation-filters="sRGB">
<feFlood flood-opacity="0" result="BackgroundImageFix"/>
<feBlend mode="normal" in="SourceGraphic" in2="BackgroundImageFix" result="shape"/>
<feColorMatrix in="SourceAlpha" type="matrix" values="0 0 0 0 0 0 0 0 0 0 0 0 0 0 0 0 0 0 127 0" result="hardAlpha"/>
<feOffset dy="-1.64"/>
<feGaussianBlur stdDeviation="2.05"/>
<feComposite in2="hardAlpha" operator="arithmetic" k2="-1" k3="1"/>
<feColorMatrix type="matrix" values="0 0 0 0 1 0 0 0 0 1 0 0 0 0 1 0 0 0 0.38 0"/>
<feBlend mode="screen" in2="shape" result="effect1_innerShadow_0_4"/>
<feColorMatrix in="SourceAlpha" type="matrix" values="0 0 0 0 0 0 0 0 0 0 0 0 0 0 0 0 0 0 127 0" result="hardAlpha"/>
<feOffset dy="2.98182"/>
<feGaussianBlur stdDeviation="3.72727"/>
<feComposite in2="hardAlpha" operator="arithmetic" k2="-1" k3="1"/>
<feColorMatrix type="matrix" values="0 0 0 0 0.12 0 0 0 0 0.07 0 0 0 0 0.42 0 0 0 0.32 0"/>
<feBlend mode="multiply" in2="effect1_innerShadow_0_4" result="effect2_innerShadow_0_4"/>
</filter>
<filter id="filter1_ii_0_4" x="15.375" y="63.96" width="8.96875" height="58.4343" filterUnits="userSpaceOnUse" color-interpolation-filters="sRGB">
<feFlood flood-opacity="0" result="BackgroundImageFix"/>
<feBlend mode="normal" in="SourceGraphic" in2="BackgroundImageFix" result="shape"/>
<feColorMatrix in="SourceAlpha" type="matrix" values="0 0 0 0 0 0 0 0 0 0 0 0 0 0 0 0 0 0 127 0" result="hardAlpha"/>
<feOffset dy="-1.64"/>
<feGaussianBlur stdDeviation="2.05"/>
<feComposite in2="hardAlpha" operator="arithmetic" k2="-1" k3="1"/>
<feColorMatrix type="matrix" values="0 0 0 0 1 0 0 0 0 1 0 0 0 0 1 0 0 0 0.38 0"/>
<feBlend mode="screen" in2="shape" result="effect1_innerShadow_0_4"/>
<feColorMatrix in="SourceAlpha" type="matrix" values="0 0 0 0 0 0 0 0 0 0 0 0 0 0 0 0 0 0 127 0" result="hardAlpha"/>
<feOffset dy="2.98182"/>
<feGaussianBlur stdDeviation="3.72727"/>
<feComposite in2="hardAlpha" operator="arithmetic" k2="-1" k3="1"/>
<feColorMatrix type="matrix" values="0 0 0 0 0.12 0 0 0 0 0.07 0 0 0 0 0.42 0 0 0 0.32 0"/>
<feBlend mode="multiply" in2="effect1_innerShadow_0_4" result="effect2_innerShadow_0_4"/>
</filter>
<filter id="filter2_ii_0_4" x="30.75" y="72.9287" width="8.96875" height="40.4968" filterUnits="userSpaceOnUse" color-interpolation-filters="sRGB">
<feFlood flood-opacity="0" result="BackgroundImageFix"/>
<feBlend mode="normal" in="SourceGraphic" in2="BackgroundImageFix" result="shape"/>
<feColorMatrix in="SourceAlpha" type="matrix" values="0 0 0 0 0 0 0 0 0 0 0 0 0 0 0 0 0 0 127 0" result="hardAlpha"/>
<feOffset dy="-1.64"/>
<feGaussianBlur stdDeviation="2.05"/>
<feComposite in2="hardAlpha" operator="arithmetic" k2="-1" k3="1"/>
<feColorMatrix type="matrix" values="0 0 0 0 1 0 0 0 0 1 0 0 0 0 1 0 0 0 0.38 0"/>
<feBlend mode="screen" in2="shape" result="effect1_innerShadow_0_4"/>
<feColorMatrix in="SourceAlpha" type="matrix" values="0 0 0 0 0 0 0 0 0 0 0 0 0 0 0 0 0 0 127 0" result="hardAlpha"/>
<feOffset dy="2.98182"/>
<feGaussianBlur stdDeviation="3.72727"/>
<feComposite in2="hardAlpha" operator="arithmetic" k2="-1" k3="1"/>
<feColorMatrix type="matrix" values="0 0 0 0 0.12 0 0 0 0 0.07 0 0 0 0 0.42 0 0 0 0.32 0"/>
<feBlend mode="multiply" in2="effect1_innerShadow_0_4" result="effect2_innerShadow_0_4"/>
</filter>
<filter id="filter3_ii_0_4" x="53.6727" y="3.57818" width="109.582" height="155.204" filterUnits="userSpaceOnUse" color-interpolation-filters="sRGB">
<feFlood flood-opacity="0" result="BackgroundImageFix"/>
<feBlend mode="normal" in="SourceGraphic" in2="BackgroundImageFix" result="shape"/>
<feColorMatrix in="SourceAlpha" type="matrix" values="0 0 0 0 0 0 0 0 0 0 0 0 0 0 0 0 0 0 127 0" result="hardAlpha"/>
<feOffset dy="-1.64"/>
<feGaussianBlur stdDeviation="2.05"/>
<feComposite in2="hardAlpha" operator="arithmetic" k2="-1" k3="1"/>
<feColorMatrix type="matrix" values="0 0 0 0 1 0 0 0 0 1 0 0 0 0 1 0 0 0 0.38 0"/>
<feBlend mode="screen" in2="shape" result="effect1_innerShadow_0_4"/>
<feColorMatrix in="SourceAlpha" type="matrix" values="0 0 0 0 0 0 0 0 0 0 0 0 0 0 0 0 0 0 127 0" result="hardAlpha"/>
<feOffset dy="2.98182"/>
<feGaussianBlur stdDeviation="3.72727"/>
<feComposite in2="hardAlpha" operator="arithmetic" k2="-1" k3="1"/>
<feColorMatrix type="matrix" values="0 0 0 0 0.12 0 0 0 0 0.07 0 0 0 0 0.42 0 0 0 0.32 0"/>
<feBlend mode="multiply" in2="effect1_innerShadow_0_4" result="effect2_innerShadow_0_4"/>
</filter>
</defs>
</g>
</svg>