<svg width="572" height="220" viewBox="0 0 572 220" fill="none" xmlns="http://www.w3.org/2000/svg">
<rect width="572" height="220" fill="#F8FAFC"/>
<g id="Buddio Logo System &#226;&#128;&#148; Clean">
<rect width="1440" height="1120" transform="translate(-96 -190)" fill="#F8FAFC"/>
<g id="Logo / Lockup / Primary">
<g id="Symbol / Purple / 220 &#226;&#128;&#148; Official + Inner Shadow Stronger">
<g id="Vector" filter="url(#filter0_ii_0_1)">
<path d="M12.0312 109.484C12.0312 106.162 9.33796 103.469 6.01562 103.469C2.69329 103.469 0 106.162 0 109.484V138.703C0 142.025 2.69329 144.719 6.01562 144.719C9.33796 144.719 12.0312 142.025 12.0312 138.703V109.484Z" fill="#5B4DFF"/>
</g>
<g id="Vector_2" filter="url(#filter1_ii_0_1)">
<path d="M32.6562 94.0156C32.6562 90.6933 29.963 88 26.6406 88C23.3183 88 20.625 90.6933 20.625 94.0156V154.172C20.625 157.494 23.3183 160.188 26.6406 160.188C29.963 160.188 32.6562 157.494 32.6562 154.172V94.0156Z" fill="#5B4DFF"/>
</g>
<g id="Vector_3" filter="url(#filter2_ii_0_1)">
<path d="M53.2812 106.047C53.2812 102.725 50.588 100.031 47.2656 100.031C43.9433 100.031 41.25 102.725 41.25 106.047V142.141C41.25 145.463 43.9433 148.156 47.2656 148.156C50.588 148.156 53.2812 145.463 53.2812 142.141V106.047Z" fill="#5B4DFF"/>
</g>
<g id="Union" filter="url(#filter3_ii_0_1)">
<path d="M89 7C98.3825 7 106 13.0214 106 19.2158V70.7402C117.408 63.3077 130.961 59 145.5 59C186.093 59 219 92.5786 219 134C219 175.421 186.093 209 145.5 209C112.048 209 83.8154 186.195 74.918 154.99C74.192 152.903 73.6436 150.41 73.2314 147.738C72.4234 143.284 72 138.693 72 134C72 133.18 72.0144 132.363 72.04 131.549C71.9632 127.413 72.0225 124.02 72.0225 122.405V19.2158C72.0227 13.0214 79.6175 7 89 7Z" fill="#5B4DFF"/>
</g>
<path id="Vector_4" d="M125 116.904C125 110.716 131.789 106.935 137.117 110.201L165.648 127.646C170.719 130.74 170.719 138.13 165.648 141.224L137.117 158.669C131.789 161.935 125 158.154 125 151.966V116.904Z" fill="white"/>
</g>
<g id="Wordmark">
<path d="M275.984 140.5C273.592 140.5 271.752 139.856 270.464 138.568C269.176 137.28 268.532 135.44 268.532 133.048V83.092C268.532 80.7 269.176 78.86 270.464 77.572C271.752 76.284 273.592 75.64 275.984 75.64H298.248C302.848 75.64 306.773 76.3147 310.024 77.664C313.275 79.0133 315.728 80.9453 317.384 83.46C319.101 85.9747 319.96 88.98 319.96 92.476C319.96 96.34 318.856 99.6213 316.648 102.32C314.44 105.019 311.404 106.828 307.54 107.748V106.276C312.017 107.073 315.483 108.852 317.936 111.612C320.451 114.311 321.708 117.837 321.708 122.192C321.708 127.957 319.715 132.465 315.728 135.716C311.741 138.905 306.252 140.5 299.26 140.5H275.984ZM282.148 129.92H297.328C301.008 129.92 303.707 129.215 305.424 127.804C307.141 126.332 308 124.185 308 121.364C308 118.543 307.141 116.427 305.424 115.016C303.707 113.605 301.008 112.9 297.328 112.9H282.148V129.92ZM282.148 102.32H295.764C299.321 102.32 301.959 101.645 303.676 100.296C305.393 98.9467 306.252 96.9227 306.252 94.224C306.252 91.5867 305.393 89.5933 303.676 88.244C301.959 86.8947 299.321 86.22 295.764 86.22H282.148V102.32ZM347.957 141.512C344.154 141.512 340.995 140.807 338.481 139.396C335.966 137.985 334.095 135.869 332.869 133.048C331.703 130.165 331.121 126.608 331.121 122.376V101.584C331.121 99.2533 331.703 97.5053 332.869 96.34C334.095 95.1747 335.813 94.592 338.021 94.592C340.229 94.592 341.946 95.1747 343.173 96.34C344.399 97.5053 345.013 99.2533 345.013 101.584V122.744C345.013 125.443 345.565 127.467 346.669 128.816C347.773 130.104 349.521 130.748 351.913 130.748C354.55 130.748 356.697 129.828 358.353 127.988C360.07 126.087 360.929 123.603 360.929 120.536V101.584C360.929 99.2533 361.511 97.5053 362.677 96.34C363.903 95.1747 365.621 94.592 367.829 94.592C370.098 94.592 371.815 95.1747 372.981 96.34C374.207 97.5053 374.821 99.2533 374.821 101.584V134.244C374.821 138.967 372.582 141.328 368.105 141.328C365.897 141.328 364.21 140.715 363.045 139.488C361.879 138.261 361.297 136.513 361.297 134.244V128.08L362.677 131.668C361.327 134.796 359.395 137.219 356.881 138.936C354.366 140.653 351.391 141.512 347.957 141.512ZM403.142 141.512C399.217 141.512 395.752 140.561 392.746 138.66C389.802 136.759 387.502 134.029 385.846 130.472C384.19 126.915 383.362 122.713 383.362 117.868C383.362 113.023 384.19 108.852 385.846 105.356C387.502 101.86 389.802 99.1613 392.746 97.26C395.752 95.3587 399.217 94.408 403.142 94.408C406.7 94.408 409.828 95.2667 412.526 96.984C415.286 98.7013 417.157 100.94 418.138 103.7H417.126V81.896C417.126 79.5653 417.709 77.8173 418.874 76.652C420.04 75.4253 421.757 74.812 424.026 74.812C426.234 74.812 427.952 75.4253 429.178 76.652C430.405 77.8173 431.018 79.5653 431.018 81.896V134.244C431.018 136.513 430.405 138.261 429.178 139.488C428.013 140.715 426.326 141.328 424.118 141.328C421.91 141.328 420.193 140.715 418.966 139.488C417.801 138.261 417.218 136.513 417.218 134.244V127.988L418.23 131.576C417.372 134.581 415.532 137.004 412.71 138.844C409.95 140.623 406.761 141.512 403.142 141.512ZM407.282 131.116C409.306 131.116 411.054 130.625 412.526 129.644C413.998 128.663 415.164 127.221 416.022 125.32C416.881 123.357 417.31 120.873 417.31 117.868C417.31 113.391 416.39 110.109 414.55 108.024C412.71 105.877 410.288 104.804 407.282 104.804C405.32 104.804 403.572 105.264 402.038 106.184C400.566 107.104 399.401 108.545 398.542 110.508C397.745 112.409 397.346 114.863 397.346 117.868C397.346 122.345 398.266 125.688 400.106 127.896C401.946 130.043 404.338 131.116 407.282 131.116ZM459.295 141.512C455.369 141.512 451.904 140.561 448.899 138.66C445.955 136.759 443.655 134.029 441.999 130.472C440.343 126.915 439.515 122.713 439.515 117.868C439.515 113.023 440.343 108.852 441.999 105.356C443.655 101.86 445.955 99.1613 448.899 97.26C451.904 95.3587 455.369 94.408 459.295 94.408C462.852 94.408 465.98 95.2667 468.679 96.984C471.439 98.7013 473.309 100.94 474.291 103.7H473.279V81.896C473.279 79.5653 473.861 77.8173 475.027 76.652C476.192 75.4253 477.909 74.812 480.179 74.812C482.387 74.812 484.104 75.4253 485.331 76.652C486.557 77.8173 487.171 79.5653 487.171 81.896V134.244C487.171 136.513 486.557 138.261 485.331 139.488C484.165 140.715 482.479 141.328 480.271 141.328C478.063 141.328 476.345 140.715 475.119 139.488C473.953 138.261 473.371 136.513 473.371 134.244V127.988L474.383 131.576C473.524 134.581 471.684 137.004 468.863 138.844C466.103 140.623 462.913 141.512 459.295 141.512ZM463.435 131.116C465.459 131.116 467.207 130.625 468.679 129.644C470.151 128.663 471.316 127.221 472.175 125.32C473.033 123.357 473.463 120.873 473.463 117.868C473.463 113.391 472.543 110.109 470.703 108.024C468.863 105.877 466.44 104.804 463.435 104.804C461.472 104.804 459.724 105.264 458.191 106.184C456.719 107.104 455.553 108.545 454.695 110.508C453.897 112.409 453.499 114.863 453.499 117.868C453.499 122.345 454.419 125.688 456.259 127.896C458.099 130.043 460.491 131.116 463.435 131.116Z" fill="#0F172A"/>
<path d="M504.867 141.236C502.598 141.236 500.85 140.592 499.623 139.304C498.458 137.955 497.875 136.084 497.875 133.692V102.228C497.875 99.7747 498.458 97.904 499.623 96.616C500.85 95.2667 502.598 94.592 504.867 94.592C507.075 94.592 508.762 95.2667 509.927 96.616C511.154 97.904 511.767 99.7747 511.767 102.228V133.692C511.767 136.084 511.184 137.955 510.019 139.304C508.854 140.592 507.136 141.236 504.867 141.236ZM504.867 87.048C502.291 87.048 500.298 86.4653 498.887 85.3C497.538 84.0733 496.863 82.356 496.863 80.148C496.863 77.8787 497.538 76.1613 498.887 74.996C500.298 73.7693 502.291 73.156 504.867 73.156C507.443 73.156 509.406 73.7693 510.755 74.996C512.104 76.1613 512.779 77.8787 512.779 80.148C512.779 82.356 512.104 84.0733 510.755 85.3C509.406 86.4653 507.443 87.048 504.867 87.048ZM544.204 141.512C539.359 141.512 535.127 140.561 531.508 138.66C527.951 136.759 525.191 134.029 523.228 130.472C521.266 126.915 520.284 122.713 520.284 117.868C520.284 114.249 520.836 110.999 521.94 108.116C523.044 105.233 524.639 102.78 526.724 100.756C528.871 98.6707 531.416 97.1067 534.36 96.064C537.304 94.96 540.586 94.408 544.204 94.408C549.05 94.408 553.251 95.3587 556.808 97.26C560.427 99.1613 563.218 101.86 565.18 105.356C567.204 108.852 568.216 113.023 568.216 117.868C568.216 121.548 567.634 124.829 566.468 127.712C565.364 130.595 563.77 133.079 561.684 135.164C559.599 137.249 557.054 138.844 554.048 139.948C551.104 140.991 547.823 141.512 544.204 141.512ZM544.204 131.116C546.228 131.116 547.976 130.625 549.448 129.644C550.92 128.663 552.086 127.221 552.944 125.32C553.803 123.357 554.232 120.873 554.232 117.868C554.232 113.391 553.312 110.109 551.472 108.024C549.632 105.877 547.21 104.804 544.204 104.804C542.242 104.804 540.494 105.264 538.96 106.184C537.488 107.104 536.323 108.545 535.464 110.508C534.667 112.409 534.268 114.863 534.268 117.868C534.268 122.345 535.188 125.688 537.028 127.896C538.868 130.043 541.26 131.116 544.204 131.116Z" fill="#5B4DFF"/>
</g>
</g>
</g>
<defs>
<filter id="filter0_ii_0_1" x="0" y="101.269" width="12.0312" height="47.45" filterUnits="userSpaceOnUse" color-interpolation-filters="sRGB">
<feFlood flood-opacity="0" result="BackgroundImageFix"/>
<feBlend mode="normal" in="SourceGraphic" in2="BackgroundImageFix" result="shape"/>
<feColorMatrix in="SourceAlpha" type="matrix" values="0 0 0 0 0 0 0 0 0 0 0 0 0 0 0 0 0 0 127 0" result="hardAlpha"/>
<feOffset dy="-2.2"/>
<feGaussianBlur stdDeviation="2.75"/>
<feComposite in2="hardAlpha" operator="arithmetic" k2="-1" k3="1"/>
<feColorMatrix type="matrix" values="0 0 0 0 1 0 0 0 0 1 0 0 0 0 1 0 0 0 0.38 0"/>
<feBlend mode="screen" in2="shape" result="effect1_innerShadow_0_1"/>
<feColorMatrix in="SourceAlpha" type="matrix" values="0 0 0 0 0 0 0 0 0 0 0 0 0 0 0 0 0 0 127 0" result="hardAlpha"/>
<feOffset dy="4"/>
<feGaussianBlur stdDeviation="5"/>
<feComposite in2="hardAlpha" operator="arithmetic" k2="-1" k3="1"/>
<feColorMatrix type="matrix" values="0 0 0 0 0.12 0 0 0 0 0.07 0 0 0 0 0.42 0 0 0 0.32 0"/>
<feBlend mode="multiply" in2="effect1_innerShadow_0_1" result="effect2_innerShadow_0_1"/>
</filter>
<filter id="filter1_ii_0_1" x="20.625" y="85.8" width="12.0312" height="78.3875" filterUnits="userSpaceOnUse" color-interpolation-filters="sRGB">
<feFlood flood-opacity="0" result="BackgroundImageFix"/>
<feBlend mode="normal" in="SourceGraphic" in2="BackgroundImageFix" result="shape"/>
<feColorMatrix in="SourceAlpha" type="matrix" values="0 0 0 0 0 0 0 0 0 0 0 0 0 0 0 0 0 0 127 0" result="hardAlpha"/>
<feOffset dy="-2.2"/>
<feGaussianBlur stdDeviation="2.75"/>
<feComposite in2="hardAlpha" operator="arithmetic" k2="-1" k3="1"/>
<feColorMatrix type="matrix" values="0 0 0 0 1 0 0 0 0 1 0 0 0 0 1 0 0 0 0.38 0"/>
<feBlend mode="screen" in2="shape" result="effect1_innerShadow_0_1"/>
<feColorMatrix in="SourceAlpha" type="matrix" values="0 0 0 0 0 0 0 0 0 0 0 0 0 0 0 0 0 0 127 0" result="hardAlpha"/>
<feOffset dy="4"/>
<feGaussianBlur stdDeviation="5"/>
<feComposite in2="hardAlpha" operator="arithmetic" k2="-1" k3="1"/>
<feColorMatrix type="matrix" values="0 0 0 0 0.12 0 0 0 0 0.07 0 0 0 0 0.42 0 0 0 0.32 0"/>
<feBlend mode="multiply" in2="effect1_innerShadow_0_1" result="effect2_innerShadow_0_1"/>
</filter>
<filter id="filter2_ii_0_1" x="41.25" y="97.8312" width="12.0312" height="54.325" filterUnits="userSpaceOnUse" color-interpolation-filters="sRGB">
<feFlood flood-opacity="0" result="BackgroundImageFix"/>
<feBlend mode="normal" in="SourceGraphic" in2="BackgroundImageFix" result="shape"/>
<feColorMatrix in="SourceAlpha" type="matrix" values="0 0 0 0 0 0 0 0 0 0 0 0 0 0 0 0 0 0 127 0" result="hardAlpha"/>
<feOffset dy="-2.2"/>
<feGaussianBlur stdDeviation="2.75"/>
<feComposite in2="hardAlpha" operator="arithmetic" k2="-1" k3="1"/>
<feColorMatrix type="matrix" values="0 0 0 0 1 0 0 0 0 1 0 0 0 0 1 0 0 0 0.38 0"/>
<feBlend mode="screen" in2="shape" result="effect1_innerShadow_0_1"/>
<feColorMatrix in="SourceAlpha" type="matrix" values="0 0 0 0 0 0 0 0 0 0 0 0 0 0 0 0 0 0 127 0" result="hardAlpha"/>
<feOffset dy="4"/>
<feGaussianBlur stdDeviation="5"/>
<feComposite in2="hardAlpha" operator="arithmetic" k2="-1" k3="1"/>
<feColorMatrix type="matrix" values="0 0 0 0 0.12 0 0 0 0 0.07 0 0 0 0 0.42 0 0 0 0.32 0"/>
<feBlend mode="multiply" in2="effect1_innerShadow_0_1" result="effect2_innerShadow_0_1"/>
</filter>
<filter id="filter3_ii_0_1" x="72" y="4.8" width="147" height="208.2" filterUnits="userSpaceOnUse" color-interpolation-filters="sRGB">
<feFlood flood-opacity="0" result="BackgroundImageFix"/>
<feBlend mode="normal" in="SourceGraphic" in2="BackgroundImageFix" result="shape"/>
<feColorMatrix in="SourceAlpha" type="matrix" values="0 0 0 0 0 0 0 0 0 0 0 0 0 0 0 0 0 0 127 0" result="hardAlpha"/>
<feOffset dy="-2.2"/>
<feGaussianBlur stdDeviation="2.75"/>
<feComposite in2="hardAlpha" operator="arithmetic" k2="-1" k3="1"/>
<feColorMatrix type="matrix" values="0 0 0 0 1 0 0 0 0 1 0 0 0 0 1 0 0 0 0.38 0"/>
<feBlend mode="screen" in2="shape" result="effect1_innerShadow_0_1"/>
<feColorMatrix in="SourceAlpha" type="matrix" values="0 0 0 0 0 0 0 0 0 0 0 0 0 0 0 0 0 0 127 0" result="hardAlpha"/>
<feOffset dy="4"/>
<feGaussianBlur stdDeviation="5"/>
<feComposite in2="hardAlpha" operator="arithmetic" k2="-1" k3="1"/>
<feColorMatrix type="matrix" values="0 0 0 0 0.12 0 0 0 0 0.07 0 0 0 0 0.42 0 0 0 0.32 0"/>
<feBlend mode="multiply" in2="effect1_innerShadow_0_1" result="effect2_innerShadow_0_1"/>
</filter>
</defs>
</svg>
